<svg xmlns="http://www.w3.org/2000/svg" width="108" height="108" fill="none" xmlns:v="https://vecta.io/nano"><g clip-path="url(#B)"><path d="M108 54c0-29.823-24.177-54-54-54S0 24.177 0 54s24.177 54 54 54 54-24.177 54-54z" fill="#f4f5f5"/><path d="M96.85 20.381v48.575H10.741V20.381H96.85zm.913-5.256H9.828c-2.146 0-3.886 1.906-3.886 4.256v54.83h95.706v-54.83c0-2.351-1.74-4.256-3.886-4.256z" fill="#464655"/><g fill="#c7cfe2"><path d="M5.942 74.479v4.043c0 1.62 1.575 2.936 3.517 2.936H98.13c1.942 0 3.517-1.314 3.517-2.936v-4.043H5.942zm59.491 14.936H42.158c-.891 0-1.613.722-1.613 1.613v.521c0 .891.722 1.613 1.613 1.613h23.275c.891 0 1.613-.722 1.613-1.613v-.521c0-.891-.722-1.613-1.613-1.613z"/></g><path d="M64.262 89.415H43.039l1.45-7.958 18.325.028 1.449 7.93z" fill="#afb9d2"/><g fill="#959cb3"><path d="M63.423 84.731l-19.528-.022.593-3.252 18.325.019.61 3.255zm-9.393-5.805c.93 0 1.684-.754 1.684-1.684s-.754-1.684-1.684-1.684-1.684.754-1.684 1.684.754 1.684 1.684 1.684z"/></g><path d="M10.517 19.7h86.332v50.72H10.517V19.7z" fill="#fff"/><g clip-path="url(#C)"><mask id="A" maskUnits="userSpaceOnUse" x="29" y="35" width="56" height="20"><path d="M29.988 35.744h54.557v18.365H29.988V35.744z" fill="#fff"/></mask><g mask="url(#A)"><path d="M36.918 43.58a4.45 4.45 0 0 1-.478.491c-.049.057-.074.131-.072.206-.004.15.112.276.263.284h.263a2.41 2.41 0 0 0 .43-.026 1.28 1.28 0 0 0-.406-.955z" fill="#010101"/><path d="M43.753 39.119a7.27 7.27 0 0 0-2.151-3.429.26.26 0 0 0-.191-.078c-.15.007-.267.133-.263.284 0 .078.049.155.024.129a4.14 4.14 0 0 1 .239 1.341 4.12 4.12 0 0 1-.119.928c-.072 0-.143-.026-.215-.026-.049.004-.099-.005-.143-.026-.143 0-.287-.026-.43-.026a5.02 5.02 0 0 0-.621.026h-.049c-.072 0-.167.026-.239.026a3.44 3.44 0 0 0-1.792-1.47c.024 0-.024-.026-.096-.026-.026.001-.052.007-.076.017s-.045.026-.063.045-.032.042-.041.066-.013.051-.012.077c-.003.036.005.072.024.103.266.493.459 1.023.573 1.571.024.078.024.181.049.258v.026c.02.076.028.154.024.232v.129a.47.47 0 0 0 .024.181v.928c.004.044-.004.089-.024.129v.155c0 .052-.024.103-.024.155s-.024.078-.024.129V41c0 .052-.024.103-.024.155s-.024.078-.024.129c-.024.052-.024.103-.049.155 0 .052-.024.078-.024.129-.024.052-.024.103-.049.155-.024.026-.024.078-.049.103l-.072.155c-.024.026-.024.078-.049.103l-.072.155c-.024.026-.024.052-.049.103l-.072.155c-.024.026-.024.052-.049.103-.023.057-.055.109-.096.155-.024.026-.024.051-.049.078-.024.052-.072.103-.096.155-.024.026-.049.051-.049.078-.025.048-.058.091-.096.129l-.072.078c-.024.052-.072.078-.096.129l-.072.078-.024.026.049-.051a1.58 1.58 0 0 1 .43.982v-.026c.501-.255.954-.595 1.338-1.005a5.03 5.03 0 0 0 .454-.567c0-.026.024-.026.024-.052a1.08 1.08 0 0 0 .167-.284c0-.026.024-.026.024-.052.049-.103.119-.206.167-.309v-.028c.049-.103.096-.232.143-.361 0-.026.024-.026.024-.052.039-.092.071-.187.096-.284 0-.026.024-.078.024-.103l.072-.258c0-.026.024-.078.024-.103l.072-.361a1.43 1.43 0 0 1 1.386-1.264h.191c.034-.001.067.008.096.026l.143.051c.024 0 .049.026.072.026a.08.08 0 0 1 .049.026c.024 0 .049.026.072.026s.024.026.049.026c.024.026.049.026.072.051.024 0 .024.026.049.026.024.026.049.026.072.051l.024.026.072.078.024.026.072.078.024.026c.03.03.054.065.072.103v.026c.024.026.049.078.072.103.031.036.048.082.049.129.024.052.024.078.049.129.057.166.089.34.096.516l.024.515a6.06 6.06 0 0 1-.096 1.135l1.242-.284a6.49 6.49 0 0 0 .072-.982 8.26 8.26 0 0 0-.309-2.14z" fill="#f57f37"/><path d="M42.821 40.949a1.23 1.23 0 0 0-.096-.515c-.024-.052-.024-.078-.049-.129-.027-.038-.043-.083-.049-.129-.024-.026-.049-.078-.072-.103v-.026c-.024-.026-.049-.078-.072-.103l-.024-.026-.072-.078-.024-.026-.072-.078-.021-.026c-.024-.026-.049-.052-.072-.052s-.024-.026-.049-.026c-.024-.026-.049-.026-.072-.052-.024 0-.024-.026-.049-.026s-.049-.026-.072-.026-.036-.012-.049-.026c-.024 0-.049-.026-.072-.026h-.072c-.026.004-.053-.006-.072-.026-.034.001-.067-.008-.096-.026h-.191c-.709.026-1.295.563-1.382 1.267l-.072.361c0 .026-.024.078-.024.103l-.072.258c0 .026-.024.078-.024.103-.024.103-.072.206-.096.284 0 .026-.024.026-.024.052l-.143.361v.026c-.046.108-.102.211-.167.309 0 .026-.024.026-.024.051-.049.103-.119.181-.167.284 0 .026-.024.026-.024.051a5.03 5.03 0 0 1-.454.568c-.383.411-.835.751-1.336 1.006v.026c1.403-.101 2.735-.652 3.8-1.571.105-.075.201-.161.287-.258.191-.181.335-.361.43-.464-.16-.131-.27-.313-.311-.515a1.59 1.59 0 0 0 .406.412c.152.113.336.176.526.181a.64.64 0 0 1-.573-.052c-.035.088-.075.174-.119.258a2.04 2.04 0 0 1-.263.361l1.242-.284a8.67 8.67 0 0 0 .096-1.135 1.96 1.96 0 0 1-.098-.518zm-1.84.181c-.17.013-.33-.08-.404-.233s-.047-.336.069-.461.296-.166.455-.104.263.215.263.385a.39.39 0 0 1-.104.287c-.036.038-.079.069-.126.091a.39.39 0 0 1-.152.035h0z" fill="#fff"/><path d="M40.981 41.129c.211 0 .382-.185.382-.412s-.171-.412-.382-.412-.382.185-.382.412.171.412.382.412zm.956 1.033a3.77 3.77 0 0 1-.407-.412.89.89 0 0 0 .311.515l-.43.464a1.71 1.71 0 0 1-.287.258l.358-.078a1.47 1.47 0 0 0 .263-.361 1.21 1.21 0 0 0 .119-.258c.082.06.178.097.279.106a.56.56 0 0 0 .294-.054.92.92 0 0 1-.501-.18z" fill="#010101"/><path d="M35.699 49.742l-1.195-2.602-.764 4.691 10.706 2.037 2.414-2.759-1.123-2.759-10.038 1.392zm9.344 1.495c-.17.013-.33-.08-.404-.233s-.047-.336.069-.462.296-.166.455-.104.263.215.263.385a.41.41 0 0 1-.382.413h0z" fill="#9f2c2c"/><path d="M38.782 45.359a.45.45 0 0 0-.288.227.45.45 0 0 0-.023.366.42.42 0 0 0 .502.387.45.45 0 0 0 .275-.218c.029-.053.047-.111.053-.171a.45.45 0 0 0-.017-.178c-.048-.335-.263-.464-.502-.412zm2.844 1.392c-.239.052-.358.284-.311.593.001.061.016.12.044.175a.41.41 0 0 0 .115.139c.048.037.104.063.163.076s.121.012.18-.002c.12-.028.223-.106.282-.214s.07-.237.029-.353c-.048-.309-.263-.464-.502-.412zm3.011-4.59l-3.489.8a6.44 6.44 0 0 1-4.23 1.598h-.263c-.15-.007-.267-.133-.263-.284-.002-.075.023-.149.072-.206l.024-.026-2.486.568 1.219 6.188 10.634-2.45 1.291-3.535-2.51-2.654zm-6.62 3.893a.94.94 0 0 1 .113-.71c.13-.212.339-.365.581-.424.117-.03.239-.035.358-.014s.232.067.332.136.184.157.246.261.102.22.115.34c.057.239.017.491-.114.7s-.339.356-.579.409a.83.83 0 0 1-.686-.106.83.83 0 0 1-.365-.591zm1.649 2.602a.17.17 0 0 1-.215-.129v-.103l1.362-3.893c.024-.051.072-.103.119-.103.045-.008.092.001.132.024s.069.061.083.105v.103l-1.362 3.893c-.01.026-.026.049-.047.067s-.046.031-.073.038v-.003zm2.222-.491c-.117.03-.238.035-.357.014s-.231-.067-.331-.135-.183-.157-.245-.26-.102-.218-.116-.338a.94.94 0 0 1 .113-.71c.13-.213.339-.365.581-.424.117-.03.239-.035.358-.014s.232.067.332.136.184.158.246.261.101.22.115.34a.92.92 0 0 1-.107.714c-.131.214-.343.365-.588.42l-.001-.003zm3.274-2.45c-.17.013-.33-.079-.404-.233s-.047-.336.069-.461c.056-.061.13-.104.211-.122s.166-.012.243.019c.159.062.263.215.263.385.003.053-.004.105-.022.155s-.045.095-.081.134-.079.07-.127.092a.39.39 0 0 1-.153.035v-.004z" fill="#e31e26"/><path d="M39.068 46.751c-.117.031-.239.035-.358.015s-.232-.067-.332-.136-.183-.158-.246-.261-.102-.22-.115-.34c-.058-.242-.017-.498.112-.71s.339-.365.581-.424c.117-.03.239-.035.359-.015s.233.067.332.136.184.158.246.262.102.22.115.34c.032.12.039.245.021.368s-.061.241-.125.347a.92.92 0 0 1-.252.27c-.101.072-.216.122-.338.149zm-.096-.438c.058-.016.112-.044.16-.081a.45.45 0 0 0 .169-.308.45.45 0 0 0-.018-.178c-.072-.309-.263-.464-.502-.412-.061.016-.118.044-.168.083s-.09.088-.12.144a.45.45 0 0 0-.023.366c.072.31.287.464.502.387h-.001zm.813 2.217c-.024.052-.072.103-.119.103a.17.17 0 0 1-.215-.129v-.103l1.362-3.893c.024-.052.072-.103.119-.103.045-.008.092.001.132.024s.069.061.084.105v.103l-1.362 3.893zm2.103-.361c-.117.031-.239.036-.359.015s-.233-.067-.332-.135-.184-.158-.246-.261-.102-.22-.115-.34a.94.94 0 0 1 .113-.71c.13-.213.339-.365.581-.424.117-.03.239-.035.358-.014s.232.067.332.136.184.158.246.261.102.22.115.34c.032.12.038.245.021.368s-.06.241-.125.346-.15.198-.251.27-.215.123-.336.151l-.001-.001zm-.071-.438c.12-.028.223-.106.282-.214s.07-.237.028-.353c-.072-.309-.263-.464-.502-.412s-.358.284-.311.593a.42.42 0 0 0 .502.387zm-5.568-11.631c.015-.013.027-.028.036-.046s.013-.037.013-.057 0-.033-.006-.049-.014-.03-.025-.042-.025-.022-.04-.028-.032-.01-.048-.009h-.024c-1.292.193-2.492.779-3.441 1.676.076.346.249.664.499.915s.566.427.912.505c.526-1.077 1.247-2.047 2.125-2.863z" fill="#fff"/><path d="M36.369 35.612c-3.489.593-6.166 3.842-6.166 7.787-.035 2.805 1.397 5.424 3.776 6.909l.382-2.269a9.69 9.69 0 0 1-1.171-4.641c-.015-1.38.278-2.746.856-3.999s1.429-2.361 2.489-3.245c.035-.028.064-.063.085-.103s.032-.084.034-.129a.32.32 0 0 0-.286-.309zm-.119.515c-.89.805-1.613 1.778-2.127 2.862-.346-.078-.662-.253-.912-.504s-.423-.568-.5-.914c.937-.901 2.131-1.487 3.417-1.676h.024c.017 0 .033.003.048.009s.029.016.04.028.02.027.025.042.007.032.006.049c.024.026 0 .078-.024.103h.002z" fill="#f57f37"/><path d="M54.651 44.789c0 1.495-.788 2.424-1.912 2.424-.563-.009-1.084-.299-1.386-.774v2.037c.001.111-.041.218-.117.3s-.179.131-.29.139a.42.42 0 0 1-.407-.438v-5.596c-.006-.075.009-.15.043-.217s.086-.123.15-.162a.41.41 0 0 1 .426 0 .41.41 0 0 1 .15.162c.034.067.049.142.043.217v.258a1.67 1.67 0 0 1 .596-.562c.242-.135.514-.208.791-.212 1.124.03 1.913.932 1.913 2.426zm-.834 0c0-.954-.478-1.651-1.291-1.651a1.49 1.49 0 0 0-.679.19c-.208.117-.385.281-.516.48v1.962a1.46 1.46 0 0 0 1.195.671c.811.026 1.289-.671 1.289-1.652h.002zm2.602-3.762c-.004-.138.046-.272.14-.373s.224-.161.361-.167a.51.51 0 0 1 .502.54c.004.138-.046.272-.14.373s-.224.161-.361.167a.51.51 0 0 1-.502-.54h0zm.119 5.699v-3.842a.41.41 0 0 1 .407-.439.41.41 0 0 1 .213.06c.064.039.116.095.15.162a.41.41 0 0 1 .043.217v3.842c.006.075-.009.15-.043.217s-.086.123-.15.162a.41.41 0 0 1-.426 0 .41.41 0 0 1-.193-.379h0zm4.876-4.333c.252-.011.504.031.739.124s.447.235.623.416a.43.43 0 0 1 .119.284.37.37 0 0 1-.358.387.3.3 0 0 1-.132-.024c-.042-.018-.078-.045-.108-.079a1.11 1.11 0 0 0-.861-.361c-.834 0-1.386.696-1.386 1.65s.55 1.651 1.386 1.651a1.11 1.11 0 0 0 .861-.361.35.35 0 0 1 .239-.103.37.37 0 0 1 .337.243c.017.047.024.095.022.144a.38.38 0 0 1-.119.284c-.176.181-.388.323-.623.416s-.487.135-.739.124c-1.291 0-2.175-1.031-2.175-2.424 0-1.339.884-2.371 2.175-2.371zm3.107 2.396c0-1.315.835-2.424 2.151-2.424 1.338 0 2.151 1.083 2.151 2.424s-.812 2.424-2.151 2.424c-1.314.002-2.151-1.081-2.151-2.424zm3.489 0c0-.877-.478-1.651-1.314-1.651-.861 0-1.338.774-1.338 1.651s.478 1.65 1.338 1.65c.837.028 1.314-.746 1.314-1.65zm6.572-3.659v5.596a.42.42 0 0 1-.021.165.41.41 0 0 1-.222.24c-.051.022-.107.034-.163.034s-.112-.012-.163-.034a.41.41 0 0 1-.222-.24c-.018-.053-.026-.109-.021-.165v-.287a1.75 1.75 0 0 1-.6.554c-.241.135-.51.21-.786.22-1.123 0-1.912-.902-1.912-2.424 0-1.47.788-2.424 1.912-2.424.563.009 1.084.299 1.386.774v-2.036c-.001-.111.041-.218.117-.3s.179-.131.29-.139a.48.48 0 0 1 .406.464zm-.812 4.667v-1.959a1.46 1.46 0 0 0-1.195-.671c-.788 0-1.291.696-1.291 1.65s.502 1.651 1.291 1.651a1.46 1.46 0 0 0 1.195-.671zm2.844-4.77c-.004-.138.046-.272.14-.373s.224-.161.361-.167a.51.51 0 0 1 .502.54c.004.138-.046.272-.14.373s-.224.161-.362.167a.51.51 0 0 1-.502-.54zm.119 5.699v-3.842a.42.42 0 0 1 .021-.165.41.41 0 0 1 .222-.24.4.4 0 0 1 .163-.034c.056 0 .112.012.163.034a.41.41 0 0 1 .222.24c.018.053.026.109.021.165v3.842a.42.42 0 0 1-.021.165c-.018.053-.048.102-.086.143s-.084.074-.136.097a.4.4 0 0 1-.163.034c-.056 0-.112-.012-.163-.034s-.098-.055-.136-.097a.41.41 0 0 1-.086-.143c-.018-.053-.026-.109-.021-.165z" fill="#000"/></g></g></g><defs><clipPath id="B"><path fill="#fff" d="M0 0h108v108H0z"/></clipPath><clipPath id="C"><path fill="#fff" transform="translate(30 36)" d="M0 0h48v18H0z"/></clipPath></defs></svg>