<svg xmlns="http://www.w3.org/2000/svg" xmlns:xlink="http://www.w3.org/1999/xlink" width="108" height="108" fill="none" xmlns:v="https://vecta.io/nano"><g clip-path="url(#G)"><path d="M54 108c29.823 0 54-24.177 54-54S83.823 0 54 0 0 24.177 0 54s24.177 54 54 54z" fill="#f4f5f5"/><path d="M10.156 19.999h87.337v49.25H10.156v-49.25z" fill="#fff"/><path d="M40.75 28.561a2.88 2.88 0 0 1-.308.315c-.031.037-.048.084-.046.133s.016.092.048.126.076.055.122.057h.17c.093.003.185-.003.277-.017.001-.115-.021-.229-.066-.335s-.112-.201-.196-.279z" fill="#010101"/><path d="M45.152 25.687a4.68 4.68 0 0 0-1.385-2.209c-.016-.016-.035-.029-.056-.038s-.044-.013-.067-.012c-.046.002-.09.022-.121.056s-.049.079-.048.125.031.1.016.083c.099.278.151.57.154.864-.003.201-.029.402-.077.598-.046 0-.092-.017-.139-.017-.032.003-.064-.003-.092-.017-.092 0-.185-.017-.277-.017a3.2 3.2 0 0 0-.401.017h-.031c-.046 0-.108.017-.154.017-.264-.439-.671-.773-1.153-.945.016 0-.016-.017-.062-.017-.034.001-.066.016-.09.04s-.035.058-.033.092c-.002.023.003.047.016.066.171.318.296.659.369 1.013.016.05.016.116.031.166v.017a.48.48 0 0 1 .016.15v.083c-.002.039.003.079.016.116v.598c.002.029-.003.057-.016.083v.1c0 .034-.016.066-.016.1s-.016.05-.016.083v.017c0 .034-.016.066-.016.1s-.016.05-.016.083c-.016.034-.016.067-.031.1 0 .034-.016.05-.016.083-.016.034-.016.066-.031.1-.016.017-.016.05-.031.066l-.046.1c-.016.017-.016.05-.031.066l-.046.1c-.016.017-.016.034-.031.067l-.047.1c-.016.017-.016.033-.031.066a.35.35 0 0 1-.062.1c-.016.017-.016.034-.031.05-.016.033-.046.066-.062.1-.016.017-.031.033-.031.05-.016.031-.037.058-.062.083l-.046.05c-.016.034-.047.05-.062.083l-.046.05-.016.017.031-.034a1.02 1.02 0 0 1 .277.631v-.017c.323-.164.616-.383.864-.648.106-.115.204-.237.293-.366 0-.017.016-.017.016-.034.045-.055.081-.117.108-.183 0-.017.016-.017.016-.034.031-.066.077-.133.108-.199v-.018a3.39 3.39 0 0 0 .092-.233c0-.017.016-.017.016-.034.025-.059.045-.12.062-.183 0-.017.016-.05.016-.066l.047-.166c0-.017.016-.05.016-.066l.046-.233a.92.92 0 0 1 .893-.814h.123c.022-.001.043.005.062.017l.092.034c.016 0 .031.017.046.017s.023.008.031.017c.016 0 .031.017.046.017s.016.017.031.017c.016.017.031.017.046.034.016 0 .016.017.031.017.016.017.031.017.047.034l.016.017.047.05.016.017.047.05.016.017c.02.019.035.042.047.066v.017c.016.017.031.05.046.066.019.023.03.053.031.083.016.034.016.05.031.083.037.107.058.219.062.332l.016.332c.002.245-.018.49-.062.731l.801-.183c.03-.21.043-.422.041-.633-.006-.466-.074-.929-.2-1.378z" fill="#f57f37"/><path d="M44.552 26.866c.004-.114-.017-.227-.062-.332-.016-.034-.016-.05-.031-.083-.017-.025-.027-.053-.031-.083-.016-.017-.031-.05-.047-.066v-.016c-.016-.017-.031-.05-.046-.066l-.016-.017-.046-.05-.016-.017-.045-.047-.016-.017c-.016-.017-.031-.034-.047-.034s-.016-.017-.031-.017c-.016-.017-.031-.017-.046-.034-.015 0-.015-.017-.031-.017s-.031-.017-.046-.017-.023-.008-.031-.017c-.016 0-.031-.017-.046-.017h-.047c-.008.001-.017 0-.025-.003s-.015-.008-.021-.014c-.022.001-.043-.005-.062-.017h-.123c-.457.016-.835.36-.893.814l-.046.233c0 .017-.016.05-.016.066l-.046.166c0 .017-.016.05-.016.066-.016.066-.046.133-.061.182 0 .017-.016.017-.016.034l-.092.233v.017c-.03.07-.066.136-.108.199 0 .017-.016.017-.016.033-.031.066-.077.116-.108.183 0 .017-.016.017-.016.033-.089.129-.186.251-.293.366-.248.265-.541.484-.864.648v.017a4.21 4.21 0 0 0 2.448-1.013c.068-.048.13-.104.185-.166.123-.116.216-.233.277-.299-.103-.084-.174-.201-.2-.332.07.104.159.194.262.266s.216.113.338.116a.41.41 0 0 1-.369-.034 1.59 1.59 0 0 1-.077.166 1.31 1.31 0 0 1-.17.233l.801-.183a5.52 5.52 0 0 0 .062-.731c-.033-.109-.052-.221-.055-.335zm-1.188.116c-.11.009-.213-.051-.261-.15s-.03-.217.044-.297.191-.107.293-.067.169.139.169.248c.002.034-.003.067-.015.099s-.029.061-.051.085-.05.045-.08.059-.063.022-.097.023h-.002z" fill="#fff"/><g fill="#010101"><path d="M43.366 26.982c.136 0 .246-.119.246-.266s-.11-.266-.246-.266-.246.119-.246.266.11.266.246.266zm.616.663a2.27 2.27 0 0 1-.262-.266.57.57 0 0 0 .2.332l-.277.299a1.08 1.08 0 0 1-.185.166l.231-.05c.068-.069.125-.147.17-.233a.82.82 0 0 0 .077-.166.36.36 0 0 0 .369.033.59.59 0 0 1-.324-.117z"/></g><path d="M39.964 32.531l-.77-1.678-.492 3.024 6.897 1.312 1.553-1.778-.724-1.777-6.464.897zm6.02.963c-.11.009-.213-.051-.261-.15s-.03-.217.044-.297.191-.107.293-.067.169.139.169.248c0 .067-.025.132-.07.182s-.109.079-.176.084h.001z" fill="#9f2c2c"/><path d="M41.95 29.706a.29.29 0 0 0-.185.146.29.29 0 0 0-.015.235c.002.039.013.076.031.111a.27.27 0 0 0 .178.137.27.27 0 0 0 .115.001c.037-.011.072-.028.103-.052a.29.29 0 0 0 .109-.198.29.29 0 0 0-.011-.115c-.031-.216-.17-.299-.324-.265zm1.832.897c-.154.034-.231.182-.2.382.002.079.039.154.102.202.031.024.067.04.106.048s.078.008.116-.001.074-.026.105-.05a.28.28 0 0 0 .076-.088c.019-.035.03-.073.034-.112s-.002-.079-.015-.116c-.032-.199-.17-.299-.324-.265zm1.94-2.957l-2.248.515a4.15 4.15 0 0 1-2.725 1.03h-.17c-.047-.002-.09-.023-.122-.057s-.049-.079-.048-.126.015-.096.047-.133l.016-.017-1.601.366.785 3.987 6.85-1.577.832-2.276-1.617-1.712zm-4.266 2.508c-.078-.325.122-.651.447-.731.075-.019.154-.022.231-.009s.149.043.213.087.118.101.158.168.066.141.075.218a.59.59 0 0 1 .009.233c-.013.077-.04.152-.082.218a.59.59 0 0 1-.373.264c-.074.021-.152.026-.228.014s-.149-.04-.213-.083-.118-.099-.159-.164-.066-.139-.076-.215h-.002zm1.062 1.678c-.015.005-.03.006-.045.004a.11.11 0 0 1-.043-.015c-.013-.008-.024-.019-.033-.031s-.015-.027-.018-.042v-.066l.88-2.508c.016-.034.047-.066.077-.066.06-.011.12.024.139.083v.067l-.878 2.508a.11.11 0 0 1-.078.066h-.002zm1.431-.315c-.075.019-.154.022-.231.009s-.149-.043-.214-.087-.118-.101-.158-.168-.066-.141-.075-.218c-.078-.325.122-.651.447-.731.075-.019.154-.022.231-.009s.149.043.214.088.118.101.158.168.066.141.075.218c.02.077.025.158.013.237a.59.59 0 0 1-.08.223c-.042.068-.096.127-.161.174s-.138.079-.216.097h-.002zm2.109-1.578c-.11.009-.213-.051-.261-.15s-.03-.217.044-.297.191-.107.293-.067.17.139.169.248c.002.034-.004.067-.015.098s-.029.061-.052.085-.05.045-.081.059-.063.022-.097.023l-.001.001z" fill="#e31e26"/><path d="M42.136 30.604c-.075.019-.154.022-.231.009s-.149-.043-.214-.087-.118-.101-.158-.168-.066-.141-.075-.218c-.078-.325.122-.651.447-.731.075-.019.154-.022.231-.009s.149.043.213.087.118.101.158.168.066.141.075.218c.02.077.025.158.013.237s-.039.155-.081.223-.097.127-.162.174-.139.079-.217.096zm-.062-.282a.29.29 0 0 0 .103-.052c.03-.024.056-.054.074-.088s.03-.072.034-.11a.29.29 0 0 0-.011-.115c-.046-.199-.169-.299-.324-.266a.29.29 0 0 0-.108.054c-.032.025-.058.057-.077.093a.29.29 0 0 0-.015.235c.045.199.184.299.322.248l.002.001zm.523 1.428c-.016.034-.047.066-.077.066-.014.005-.03.006-.045.004s-.03-.007-.043-.015-.024-.018-.033-.031-.015-.027-.017-.042v-.066l.877-2.508c.016-.034.046-.066.077-.066.061-.011.12.024.139.083v.065l-.877 2.509zm1.355-.233c-.075.019-.154.022-.231.009s-.149-.043-.213-.087-.118-.101-.158-.168-.066-.141-.075-.218c-.078-.325.122-.651.447-.731.075-.019.154-.022.231-.009s.15.043.214.087.118.101.158.168.066.141.075.218c.02.078.025.158.013.238s-.039.155-.081.224-.097.127-.163.174-.139.079-.218.096h.002zm-.046-.282c.038-.009.074-.026.105-.05a.28.28 0 0 0 .076-.088c.019-.034.03-.072.034-.112s-.002-.079-.015-.116c-.046-.199-.169-.299-.324-.266s-.231.182-.2.382a.27.27 0 0 0 .104.199.27.27 0 0 0 .104.049c.038.009.077.009.115.002h.001zm-3.588-7.491c.019-.017.031-.041.031-.066.001-.011 0-.021-.004-.032s-.009-.02-.016-.027-.016-.014-.026-.018-.02-.006-.031-.006h-.016a4.11 4.11 0 0 0-2.217 1.08 1.2 1.2 0 0 0 .908.913 6.29 6.29 0 0 1 1.37-1.844h.001z" fill="#fff"/><path d="M40.395 23.428c-2.366.487-4.041 2.602-3.972 5.017a5.17 5.17 0 0 0 2.435 4.452l.246-1.462a6.24 6.24 0 0 1-.756-2.99 5.99 5.99 0 0 1 .551-2.577c.373-.807.92-1.522 1.603-2.091.046-.036.075-.091.077-.15-.001-.05-.021-.098-.055-.135s-.08-.06-.13-.065zm-.079.332c-.573.519-1.037 1.146-1.368 1.844a1.2 1.2 0 0 1-.909-.915 4.02 4.02 0 0 1 2.202-1.08h.016c.011 0 .021.002.031.006s.019.01.026.018.013.017.016.027.005.021.003.032c.016.017 0 .05-.016.066l-.002.002z" fill="#f57f37"/><g fill="#000"><path d="M52.173 29.341c0 .963-.508 1.562-1.232 1.562a1.08 1.08 0 0 1-.893-.498v1.312a.28.28 0 0 1-.262.282.27.27 0 0 1-.246-.177c-.012-.034-.018-.069-.016-.105v-3.605c-.008-.098.041-.193.125-.245s.19-.051.274 0 .132.146.125.245v.166a1.08 1.08 0 0 1 .893-.498c.724.018 1.232.598 1.232 1.562h-.001zm-.54 0c0-.614-.308-1.063-.832-1.063a.96.96 0 0 0-.77.432v1.262a.94.94 0 0 0 .77.432c.525.016.833-.432.833-1.063h-.001zm1.679-2.425a.34.34 0 0 1 .324-.349.33.33 0 0 1 .323.349.34.34 0 0 1-.324.349.34.34 0 0 1-.129-.028.33.33 0 0 1-.195-.321zm.077 3.672V28.11c-.008-.098.041-.193.125-.245s.19-.051.274 0 .132.146.125.245v2.475c.008.098-.041.193-.125.245s-.19.051-.274 0-.132-.146-.125-.245v.003zm3.14-2.791a1.15 1.15 0 0 1 .877.349.27.27 0 0 1 .077.182c.002.068-.019.126-.063.173a.24.24 0 0 1-.077.055c-.029.013-.06.02-.092.021a.19.19 0 0 1-.154-.066.73.73 0 0 0-.251-.178c-.095-.041-.199-.059-.303-.055a.96.96 0 0 0-.375.096c-.117.057-.221.139-.305.239a.95.95 0 0 0-.215.727.95.95 0 0 0 .214.727c.084.1.188.181.304.239a.94.94 0 0 0 .375.097.71.71 0 0 0 .303-.055c.096-.04.181-.101.251-.178a.23.23 0 0 1 .154-.067.24.24 0 0 1 .092.021c.029.013.055.032.076.055s.038.05.049.08.016.061.014.093c.001.069-.027.135-.077.183a1.15 1.15 0 0 1-.878.349 1.43 1.43 0 0 1-1.401-1.561 1.42 1.42 0 0 1 1.403-1.527zm2.001 1.544a1.44 1.44 0 0 1 .357-1.079 1.45 1.45 0 0 1 .464-.347 1.43 1.43 0 0 1 .564-.135 1.42 1.42 0 0 1 1.386 1.561 1.4 1.4 0 0 1-.641 1.345c-.455.288-1.035.287-1.489 0a1.4 1.4 0 0 1-.641-1.345zm2.247 0c0-.565-.308-1.063-.847-1.063-.554 0-.864.498-.864 1.063s.308 1.063.864 1.063c.539.016.847-.482.847-1.063zm4.234-2.359v3.604c.004.048-.006.097-.028.14s-.055.079-.097.105c-.084.052-.19.051-.274 0s-.132-.146-.125-.245v-.183a1.13 1.13 0 0 1-.386.357c-.155.087-.329.135-.507.142-.724 0-1.232-.582-1.232-1.561 0-.947.508-1.561 1.232-1.561a1.08 1.08 0 0 1 .893.498v-1.312c-.001-.072.026-.141.075-.193a.28.28 0 0 1 .187-.089.31.31 0 0 1 .261.298h.001zm-.523 3.007v-1.262a.94.94 0 0 0-.77-.432c-.508 0-.832.449-.832 1.063s.324 1.063.832 1.063a.94.94 0 0 0 .77-.432zm1.832-3.073a.34.34 0 0 1 .324-.349.33.33 0 0 1 .324.349.34.34 0 0 1-.324.349.33.33 0 0 1-.306-.218c-.015-.042-.022-.086-.019-.131zm.077 3.672V28.11c-.004-.048.006-.097.028-.14s.055-.079.097-.105c.084-.052.19-.051.274 0s.132.146.125.245v2.475c.004.048-.006.097-.028.14s-.055.079-.097.105c-.084.052-.19.051-.274 0s-.132-.146-.125-.245v.003z"/></g><path d="M91.8 38.34H52.92a1.08 1.08 0 0 0-1.08 1.08v10.26a1.08 1.08 0 0 0 1.08 1.08H91.8a1.08 1.08 0 0 0 1.08-1.08V39.42a1.08 1.08 0 0 0-1.08-1.08z" fill="#f4f5f5"/><use xlink:href="#H" fill="#afb4b6"/><g fill="#cacdce"><path opacity=".63" d="M84.616 42.254H63.67c-.272 0-.492.221-.492.492s.221.492.492.492h20.946c.272 0 .493-.221.493-.492s-.221-.492-.493-.492zm-11.096 1.97h-9.85a.49.49 0 0 0-.492.492c0 .272.221.492.492.492h9.85c.272 0 .492-.221.492-.492s-.22-.492-.492-.492z"/></g><path d="M88.83 45.36H78.57a1.89 1.89 0 0 0 0 3.78h10.26a1.89 1.89 0 0 0 0-3.78z" fill="#68d475"/><path d="M54.749 40.284h5.58a1.08 1.08 0 0 1 1.08 1.08v5.685h-7.74v-5.685a1.08 1.08 0 0 1 1.08-1.08z" fill="#fff"/><path d="M58.938 43.129c-.002-.06-.028-.117-.073-.158a.24.24 0 0 0-.151-.062h-.979c-.054-.004-.107.016-.145.054l-1.395 1.397c-.018.018-.032.039-.042.062s-.015.048-.015.073.005.05.015.073.024.044.042.062l1.026 1.022c.018.018.039.032.062.042s.048.015.073.015.05-.005.073-.015.044-.024.062-.042l1.393-1.393c.037-.039.057-.091.054-.145v-.985zm-.403.503c-.043.038-.099.058-.156.056s-.112-.025-.153-.066-.064-.095-.066-.152.018-.113.056-.156c.043-.038.099-.058.156-.056s.112.025.152.066.064.095.066.153-.018.113-.056.156z" fill="#e5161e"/><path d="M53.669 47.049h7.74v.648a1.08 1.08 0 0 1-1.08 1.08h-5.58a1.08 1.08 0 0 1-1.08-1.08v-.648z" fill="#fad1d2"/><path d="M96.897 20.223v48.805H10.381V20.223h86.516zm.918-5.281H9.463c-2.157 0-3.905 1.915-3.905 4.276v55.089h96.161V19.221c0-2.362-1.748-4.276-3.905-4.276l.001-.003z" fill="#464655"/><g fill="#c7cfe2"><path d="M5.559 74.577v4.062c0 1.629 1.582 2.95 3.534 2.95h89.092c1.952 0 3.533-1.32 3.533-2.95v-4.062H5.559zm59.619 15.007H42.1c-.98 0-1.775.794-1.775 1.774v.216c0 .98.794 1.775 1.775 1.775h23.078c.98 0 1.775-.794 1.775-1.775v-.216c0-.98-.794-1.774-1.775-1.774z"/></g><path d="M64.156 89.584H42.831l1.458-7.995 18.414.028 1.453 7.968z" fill="#afb9d2"/><g fill="#959cb3"><path d="M63.312 84.878l-19.62-.022.594-3.268 18.414.019.612 3.27zm-9.437-5.832a1.69 1.69 0 0 0 1.692-1.692c0-.934-.758-1.692-1.692-1.692s-1.692.758-1.692 1.692.758 1.692 1.692 1.692z"/></g><path d="M14.04 38.34h33.48c.306.022.591.164.794.395s.305.532.286.839V64.87c.019.306-.084.608-.286.839s-.487.373-.794.395H14.04c-.306-.022-.591-.164-.793-.395s-.305-.532-.287-.839V39.574c-.019-.306.084-.608.287-.839s.487-.373.793-.395z" fill="#f4f5f5"/><path d="M42.12 56.16H19.44a3.24 3.24 0 0 0-3.24 3.24v.54a3.24 3.24 0 0 0 3.24 3.24h22.68a3.24 3.24 0 0 0 3.24-3.24v-.54a3.24 3.24 0 0 0-3.24-3.24z" fill="#68d475"/><path d="M91.8 52.38H52.92a1.08 1.08 0 0 0-1.08 1.08v10.26a1.08 1.08 0 0 0 1.08 1.08H91.8a1.08 1.08 0 0 0 1.08-1.08V53.46a1.08 1.08 0 0 0-1.08-1.08z" fill="#f4f5f5"/><path d="M81.4 54.325H63.67c-.272 0-.492.221-.492.492s.221.492.492.492H81.4c.272 0 .493-.22.493-.492s-.221-.492-.493-.492z" fill="#afb4b6"/><g fill="#d9dbdb"><path opacity=".63" d="M84.616 56.294H63.67a.49.49 0 0 0-.492.492c0 .272.221.492.492.492h20.946c.272 0 .493-.22.493-.492s-.221-.492-.493-.492zm-11.096 1.97h-9.85c-.272 0-.492.221-.492.492s.221.492.492.492h9.85c.272 0 .492-.221.492-.492s-.22-.492-.492-.492z"/></g><path d="M88.83 59.4H78.57a1.89 1.89 0 1 0 0 3.78h10.26a1.89 1.89 0 1 0 0-3.78z" fill="#68d475"/><path d="M54.749 54.325h5.58a1.08 1.08 0 0 1 1.08 1.08v5.685h-7.74v-5.684a1.08 1.08 0 0 1 1.08-1.08z" fill="#fff"/><path d="M58.938 57.169c-.002-.06-.028-.117-.073-.158a.24.24 0 0 0-.151-.062h-.979c-.054-.004-.107.016-.145.054L56.195 58.4c-.018.018-.032.039-.042.062s-.015.048-.015.073.005.05.015.073.024.044.042.062l1.026 1.022c.018.018.039.032.062.042a.19.19 0 0 0 .147 0c.023-.01.044-.024.062-.042l1.393-1.393c.037-.039.057-.091.054-.145v-.985zm-.403.503c-.043.038-.099.058-.156.056s-.112-.025-.153-.066-.064-.095-.066-.152.018-.113.056-.156c.043-.038.099-.058.156-.056s.112.025.152.066.064.095.066.153-.018.113-.056.156z" fill="#e5161e"/><path d="M53.669 61.089h7.74v.648a1.08 1.08 0 0 1-1.08 1.08h-5.58a1.08 1.08 0 0 1-1.08-1.08v-.648z" fill="#fad1d2"/><path d="M43.74 40.5H17.82a1.62 1.62 0 0 0-1.62 1.62v10.26A1.62 1.62 0 0 0 17.82 54h25.92a1.62 1.62 0 0 0 1.62-1.62V42.12a1.62 1.62 0 0 0-1.62-1.62z" fill="#fff"/><path d="M25.753 47.061h.436c.184 0 .332-.148.332-.332s-.149-.332-.332-.332h-.436c-.184 0-.332.148-.332.332s.149.332.332.332z" fill="url(#A)"/><path d="M27.517 49.033h-.436c-.184 0-.332.148-.332.332s.148.332.332.332h.436c.089.001.173-.034.236-.096a.33.33 0 0 0 .096-.236.34.34 0 0 0-.332-.332z" fill="url(#B)"/><path d="M26.335 44.072c.006.086.043.167.104.229s.142.098.229.104h.603a.25.25 0 0 1 .187.104c.046.042.079.097.094.157s.013.124-.006.183-.056.111-.105.151-.108.063-.17.069h-2.098c-.089-.001-.173.034-.236.096s-.097.148-.096.236.043.167.104.228.142.098.229.104h3.217a.33.33 0 0 1 .228.104c.055.065.091.144.104.228.002.091-.032.178-.094.244s-.148.105-.238.108h-1.1c-.089-.001-.173.034-.236.096a.33.33 0 0 0-.096.236c.006.086.043.167.104.228s.142.098.229.104h.332c.089-.001.173.034.236.096a.33.33 0 0 1 .096.236c0 .092-.038.179-.105.242a.33.33 0 0 1-.248.09h-.997c-.044.003-.086.016-.124.038s-.071.051-.097.087-.043.076-.052.119-.007.087.003.13c.014.072.05.138.104.187.049.052.116.082.187.083h2.408c.089-.001.173.033.236.096a.33.33 0 0 1 .096.236c0 .092-.038.179-.105.242a.33.33 0 0 1-.248.09h-.392c-.089-.001-.173.033-.236.096s-.097.148-.096.236c.003.142.095.266.228.312h1.474c-.02-.062-.062-.104-.062-.166l-1.146-4.671-.332-.041a.73.73 0 0 1-.488-.272.73.73 0 0 1-.152-.537.59.59 0 0 1 .083-.27h-1.247c-.085.003-.165.04-.224.102s-.09.145-.087.23z" fill="url(#C)"/><path d="M36.65 45.235h-6.684l-.291-1.142c-.036-.147-.161-.256-.312-.27l-.81-.083h-.041c-.092 0-.179.038-.242.105a.33.33 0 0 0-.09.248c.01.172.141.312.312.332l.56.062 1.204 4.94c.038.154.173.265.332.27h5.148c.162.002.301-.111.332-.27l.913-3.757v-.104c.005-.09-.029-.177-.092-.24s-.151-.097-.24-.091zm-1.183 3.757H30.88l-.747-3.051h6.081l-.747 3.051z" fill="url(#D)"/><path d="M31.171 50.569a.5.5 0 0 0 .498.498.5.5 0 0 0 .498-.498.5.5 0 0 0-.498-.498.49.49 0 0 0-.355.144.49.49 0 0 0-.108.163c-.025.061-.037.126-.036.192z" fill="url(#E)"/><path d="M35.177 50.569c-.003-.274-.225-.495-.498-.498a.5.5 0 0 0-.445.752.5.5 0 0 0 .445.244.48.48 0 0 0 .358-.14.48.48 0 0 0 .14-.358v.001z" fill="url(#F)"/><g fill="#fff"><path d="M31.199 62.396v-.81h2.03v.81h-2.03zm-.473-2.128l1.149-1.149.572.572-1.151 1.149-.571-.572zm-1.557-1.933h.81v2.03h-.81v-2.03zm-2.465 5.953l1.15-1.147.572.572-1.149 1.148-.572-.572m0-4.597l.572-.572 1.149 1.149-.572.572-1.15-1.149m1.247 2.704h-2.03v-.81h2.03v.81z"/><use xlink:href="#I"/></g><use xlink:href="#I" stroke="#000"/></g><defs><linearGradient id="A" x1="-50.621" y1="181.659" x2="-49.017" y2="183.333" xlink:href="#J"><stop stop-color="#f05a28"/><stop offset="1" stop-color="#f6921e"/></linearGradient><linearGradient id="B" x1="-50.308" y1="180.616" x2="-48.703" y2="182.291" xlink:href="#J"><stop stop-color="#f05a28"/><stop offset="1" stop-color="#f6921e"/></linearGradient><linearGradient id="C" x1="-54.419" y1="302.5" x2="-51.952" y2="303.203" xlink:href="#J"><stop stop-color="#f05a28"/><stop offset="1" stop-color="#f6921e"/></linearGradient><linearGradient id="D" x1="-54.682" y1="302.514" x2="-52.818" y2="304.063" xlink:href="#J"><stop stop-color="#f05a28"/><stop offset="1" stop-color="#f6921e"/></linearGradient><linearGradient id="E" x1="-48.673" y1="226.312" x2="-46.273" y2="227.225" xlink:href="#J"><stop stop-color="#f05a28"/><stop offset="1" stop-color="#f6921e"/></linearGradient><linearGradient id="F" x1="-49.296" y1="226.22" x2="-46.865" y2="227.16" xlink:href="#J"><stop stop-color="#f05a28"/><stop offset="1" stop-color="#f6921e"/></linearGradient><clipPath id="G"><path fill="#fff" d="M0 0h108v108H0z"/></clipPath><path id="H" d="M81.4 40.284H63.67c-.272 0-.492.221-.492.492s.221.492.492.492H81.4c.272 0 .493-.22.493-.492s-.221-.492-.493-.492z"/><path id="I" d="M30.048 62.396c-.261 0-.474.212-.474.474v7.135c0 .261.212.474.474.474a.48.48 0 0 0 .299-.1l1.188-.966 1.034 2.256c.039.081.1.15.177.198s.165.073.255.072c.072.008.145-.01.206-.05l1.72-.797c.115-.052.204-.148.246-.267s.035-.249-.022-.362l-1.041-2.262 1.502-.28a.55.55 0 0 0 .27-.162.47.47 0 0 0 .106-.353c-.014-.127-.079-.243-.181-.32l-5.448-4.582-.006.006a.47.47 0 0 0-.305-.112"/><linearGradient id="J" gradientUnits="userSpaceOnUse"/></defs></svg>