<svg xmlns="http://www.w3.org/2000/svg" width="108" height="108" fill="none" xmlns:v="https://vecta.io/nano"><g clip-path="url(#A)"><path d="M92.188 92.171c21.088-21.088 21.088-55.279 0-76.367s-55.279-21.088-76.367 0-21.088 55.279 0 76.367 55.279 21.088 76.367 0z" fill="#f4f5f5"/><path d="M96.917 20.244v48.796H10.37V20.244h86.547zm.884-5.302H9.486c-2.16 0-3.927 1.915-3.927 4.271v55.08h96.169v-55.08c0-2.356-1.767-4.271-3.927-4.271z" fill="#464655"/><path d="M5.559 74.588v4.075c0 1.62 1.571 2.945 3.535 2.945h89.1c1.963 0 3.534-1.325 3.534-2.945v-4.075H5.559zm36.386 15.003h23.416c.428.004.838.176 1.141.479s.475.713.479 1.141v.54c-.004.428-.176.838-.479 1.141s-.713.475-1.141.479H41.945c-.428-.004-.838-.176-1.141-.479s-.475-.713-.479-1.141v-.54c.004-.428.176-.838.479-1.141s.713-.475 1.141-.479z" fill="#c7cfe2"/><path d="M64.134 89.591H42.829l1.473-8.002 18.409.049 1.424 7.953z" fill="#afb9d2"/><g fill="#959cb3"><path d="M63.3 84.878H43.664l.638-3.289h18.409l.589 3.289zm-9.435-5.872a1.67 1.67 0 0 0 1.669-1.669 1.67 1.67 0 0 0-1.669-1.669 1.67 1.67 0 0 0-1.669 1.669 1.67 1.67 0 0 0 1.669 1.669z"/></g><path d="M10.174 19.999h87.333v49.238H10.174V19.999z" fill="#fff"/><path d="M13.757 39.782h80.509c.54 0 .982.442.982.982v22.582c0 .54-.442.982-.982.982H13.757c-.54 0-.982-.442-.982-.982V40.764c0-.54.442-.982.982-.982z" fill="#f4f5f5"/><path d="M36.634 43.857h35.444c.54 0 .982.442.982.982s-.442.982-.982.982H36.634c-.54 0-.982-.442-.982-.982s.442-.982.982-.982z" fill="#afb4b6"/><path opacity=".63" d="M36.634 47.784h41.875c.54 0 .982.442.982.982s-.442.982-.982.982H36.634c-.54 0-.982-.442-.982-.982s.442-.982.982-.982zm0 3.927h19.685c.54 0 .982.442.982.982s-.442.982-.982.982H36.634c-.54 0-.982-.442-.982-.982s.442-.982.982-.982z" fill="#dadcdd"/><path d="M64.812 54.019h23.073c.78.003 1.528.314 2.08.866s.863 1.3.866 2.08v.982c-.003.78-.314 1.528-.866 2.08s-1.299.863-2.08.866H64.812c-.78-.003-1.528-.314-2.08-.866s-.863-1.299-.866-2.08v-.982c0-1.669 1.325-2.946 2.946-2.946z" fill="#68d475"/><g fill="#fff"><path d="M81.335 58.089v-.835h2.013v.835h-2.013zm-.491-2.16l1.129-1.129.589.589-1.129 1.129-.589-.589zm-1.571-1.915h.835v2.013h-.835v-2.013zm-2.454 5.94l1.129-1.129.589.589-1.129 1.129-.589-.589zm0-4.565l.589-.589 1.129 1.129-.589.589-1.129-1.129zm1.227 2.7h-2.013v-.835h2.013v.835zm2.111 0c-.245 0-.491.196-.491.491v7.118c0 .245.196.491.491.491.098 0 .196-.049.295-.098l1.178-.982 1.031 2.258c.098.147.245.245.442.245.049 0 .147 0 .196-.049l1.718-.785a.45.45 0 0 0 .246-.589l-1.031-2.258 1.522-.294c.098-.049.196-.098.246-.147.147-.196.147-.491-.049-.638l-5.498-4.664c-.049-.049-.196-.098-.295-.098z"/></g><path d="M83.152 67.858h-.049c-.245 0-.491-.147-.638-.393l-.884-1.964-.933.786c-.147.098-.294.147-.442.147a.75.75 0 0 1-.687-.687v-7.216c.005-.194.084-.378.221-.515s.322-.216.515-.221v.491c-.196.049-.344.147-.344.245v7.118c0 .049 0 .098.049.147s.098.049.147.049.098 0 .147-.049l1.424-1.178 1.227 2.651c.049.098.098.147.196.147h.098l1.718-.785c.049-.049.098-.049.098-.098v-.147l-1.129-2.7 1.816-.344c.049 0 .098-.049.147-.098.098-.098.049-.245-.049-.294l-5.302-4.418-.196-.147c-.049-.049-.098-.049-.147-.049v-.491c.098 0 .196 0 .246.049l.049-.049.196.147 5.449 4.566c.076.06.139.135.185.22s.075.178.084.275a.72.72 0 0 1-.171.537 1.07 1.07 0 0 1-.393.245l-1.227.245.933 1.964a.71.71 0 0 1 .049.54c-.049.196-.196.295-.393.393l-1.718.785c-.098.098-.196.098-.294.098z" fill="#000"/><path d="M18.372 43h12.256a2.36 2.36 0 0 1 1.677.701c.445.449.695 1.058.695 1.693V58H16V45.395c0-.635.25-1.244.695-1.693A2.36 2.36 0 0 1 18.372 43z" fill="#fff"/><path d="M27.572 49.028a.47.47 0 0 0-.16-.335.54.54 0 0 0-.332-.131h-2.15c-.119-.009-.235.033-.319.114l-3.063 2.961a.4.4 0 0 0-.092.131.39.39 0 0 0 0 .31.4.4 0 0 0 .092.131l2.253 2.167c.039.038.085.068.136.089a.43.43 0 0 0 .322 0c.051-.021.097-.051.136-.089l3.06-2.953a.41.41 0 0 0 .119-.308v-2.088zm-.885 1.067a.51.51 0 0 1-.343.118c-.126-.004-.246-.053-.335-.139a.47.47 0 0 1-.021-.655.51.51 0 0 1 .343-.118c.126.004.246.053.335.139s.14.202.144.323a.47.47 0 0 1-.123.331z" fill="#e5161e"/><path d="M16 57.338h17v1.374a2.25 2.25 0 0 1-.695 1.619c-.445.429-1.048.67-1.677.67H18.372c-.629 0-1.232-.241-1.677-.67A2.25 2.25 0 0 1 16 58.711v-1.373z" fill="#fad1d2"/></g><defs><clipPath id="A"><path fill="#fff" d="M0 0h108v108H0z"/></clipPath></defs></svg>