<svg xmlns="http://www.w3.org/2000/svg" width="108" height="108" fill="none" xmlns:v="https://vecta.io/nano"><g clip-path="url(#C)"><path d="M108 54c0-29.823-24.177-54-54-54S0 24.177 0 54s24.177 54 54 54 54-24.177 54-54z" fill="#f4f5f5"/><path d="M96.85 20.381v48.574H10.741V20.381H96.85zm.913-5.256H9.828c-2.146 0-3.886 1.906-3.886 4.256v54.83h95.706v-54.83c0-2.351-1.74-4.256-3.886-4.256z" fill="#464655"/><g fill="#c7cfe2"><path d="M5.942 74.479v4.043c0 1.62 1.575 2.936 3.517 2.936h88.672c1.942 0 3.517-1.314 3.517-2.936v-4.043H5.942zm59.491 14.936H42.158c-.891 0-1.613.722-1.613 1.613v.521c0 .891.722 1.613 1.613 1.613h23.275c.891 0 1.613-.722 1.613-1.613v-.521c0-.891-.722-1.613-1.613-1.613z"/></g><path d="M64.263 89.415H43.039l1.45-7.958 18.325.028 1.449 7.93z" fill="#afb9d2"/><g fill="#959cb3"><path d="M63.423 84.731l-19.528-.022.593-3.252 18.325.019.61 3.255zm-9.393-5.805c.93 0 1.684-.754 1.684-1.684s-.754-1.684-1.684-1.684-1.684.754-1.684 1.684.754 1.684 1.684 1.684z"/></g><path d="M10.517 19.7h86.332v50.72H10.517V19.7z" fill="#fff"/><path d="M47.989 53.294l-6.803-7.084a2 2 0 1 0-2.888 2.771l9.69 10.105 22.215-23.312a2 2 0 1 0-2.896-2.759L47.989 53.294z" fill="#68d475"/><path d="M90.894 62.869c-.281 0-.469-.196-.469-.442-.375-4.467-1.687-8.689-3.609-11.929-1.734-2.847-3.844-4.516-5.578-4.516-6.281 0-7.594 16.298-7.641 16.446 0 .245-.234.442-.469.442-.234-.049-.422-.245-.375-.54C72.8 61.642 74.16 45 81.238 45c2.063 0 4.313 1.816 6.234 5.007 2.063 3.338 3.375 7.756 3.797 12.371.047.245-.141.442-.375.491z" fill="#4a4a4a"/><path d="M64.597 96.398l8.297 4.713 5.016-17.329-8.297-23.318-2.344.638-3.562 33.48c-.094.736.281 1.424.891 1.816z" fill="url(#A)"/><path opacity=".3" d="M77.91 83.782l-8.297-23.318-1.406.393c-.187 3.093 0 7.511 0 7.511l-.656 24.005s2.25 6.186 4.734 8.394l.609.344 5.016-17.329z" fill="url(#B)"/><path d="M69.613 60.464l31.265 1.767 4.407 35.984-32.438 2.847-3.234-40.598z" fill="#fbec6a"/><path d="M79.222 63.655c-.187 0-.375-.147-.422-.393-.094-.442-2.109-10.407.75-15.267.75-1.325 1.969-2.258 3.422-2.504 7.406-1.473 12 16.445 12.188 17.182.047.245-.047.491-.281.589-.234.049-.469-.098-.516-.294s-4.547-17.82-11.203-16.495c-1.219.245-2.25 1.031-2.859 2.111-2.719 4.516-.656 14.384-.656 14.482.047.245-.094.491-.328.589h-.094z" fill="#4a4a4a"/><g fill="#3b3030"><path d="M79.222 65.127c.673 0 1.219-.615 1.219-1.375s-.546-1.374-1.219-1.374-1.219.615-1.219 1.374.546 1.375 1.219 1.375zm15.703-.147c.673 0 1.219-.615 1.219-1.375s-.546-1.375-1.219-1.375-1.219.615-1.219 1.375.546 1.375 1.219 1.375z"/></g></g><defs><linearGradient id="A" x1="63.705" y1="80.809" x2="77.924" y2="80.809" gradientUnits="userSpaceOnUse"><stop stop-color="#ffda8b"/><stop offset=".996" stop-color="#ffb240"/></linearGradient><linearGradient id="B" x1="67.553" y1="80.813" x2="77.923" y2="80.813" gradientUnits="userSpaceOnUse"><stop stop-color="#ffd987"/><stop offset=".996" stop-color="#f3c756"/></linearGradient><clipPath id="C"><path fill="#fff" d="M0 0h108v108H0z"/></clipPath></defs></svg>